<svg width="1299" height="556" viewBox="0 0 1299 556" fill="none" xmlns="http://www.w3.org/2000/svg">
<g clip-path="url(#clip0_101_9)">
<path d="M439.433 241.513V122.875H387.597C380.269 122.887 373.245 125.808 368.07 130.997C362.895 136.185 359.992 143.217 360 150.545V395.786C360 408.124 374.894 414.257 383.582 405.569L440.601 348.55H602.97C606.595 348.553 610.185 347.841 613.535 346.455C616.884 345.069 619.928 343.036 622.491 340.473C625.054 337.91 627.087 334.867 628.473 331.517C629.858 328.168 630.57 324.578 630.567 320.953V269.117H467.103C459.773 269.125 452.741 266.221 447.552 261.045C442.363 255.868 439.442 248.842 439.433 241.513Z" fill="#B13469"/>
<path d="M682.374 45.0073H467.103C463.478 45.0044 459.888 45.7163 456.538 47.1021C453.189 48.488 450.145 50.5207 447.582 53.0839C445.019 55.647 442.986 58.6905 441.6 62.04C440.215 65.3895 439.503 68.9794 439.506 72.6043V123.272H602.97C606.593 123.273 610.18 123.987 613.526 125.375C616.872 126.763 619.912 128.796 622.472 131.359C625.032 133.921 627.062 136.964 628.446 140.311C629.83 143.659 630.541 147.246 630.538 150.869V269.434H682.374C685.999 269.437 689.589 268.725 692.938 267.339C696.288 265.953 699.331 263.92 701.894 261.357C704.457 258.794 706.49 255.751 707.876 252.401C709.262 249.051 709.974 245.462 709.971 241.837V72.597C709.973 68.9727 709.26 65.3836 707.874 62.0349C706.488 58.6862 704.455 55.6437 701.892 53.0813C699.329 50.5189 696.285 48.4868 692.936 47.1014C689.587 45.716 685.998 45.0044 682.374 45.0073Z" fill="#FF339E"/>
<path d="M602.97 123.265H439.433V241.829C439.43 245.454 440.142 249.044 441.527 252.394C442.913 255.743 444.946 258.787 447.509 261.35C450.072 263.913 453.116 265.946 456.465 267.332C459.815 268.717 463.405 269.429 467.03 269.426H630.494V150.935C630.513 147.308 629.814 143.714 628.439 140.358C627.064 137.002 625.04 133.951 622.482 131.38C619.925 128.809 616.885 126.768 613.536 125.376C610.188 123.983 606.597 123.265 602.97 123.265Z" fill="#7E0136"/>
<path d="M328.5 34C329.5 39.6667 330.167 43.6667 330.5 46C331.167 48 331.5 50.8333 331.5 54.5C331.5 65.5 329 75.8333 324 85.5C319.333 94.8333 312.833 101.5 304.5 105.5C297.833 96.5 289.667 88.8333 280 82.5C270.333 75.8333 259.667 70.5 248 66.5C236.667 62.1666 224.833 59 212.5 57C200.167 55 188.167 54 176.5 54C164.833 54 153.833 55 143.5 57C133.5 58.6667 124.5 61.1667 116.5 64.5C108.833 67.5 102.667 71.3333 98 76C93.6667 80.6666 91.5 86 91.5 92C92.5 99.3333 97 106.833 105 114.5C113 121.833 122.833 129.167 134.5 136.5C146.167 143.5 159 150.5 173 157.5C187.333 164.5 201.333 171.167 215 177.5C232 185.5 246.667 193 259 200C271.333 206.667 281.5 214.167 289.5 222.5C297.5 230.5 303.5 239.667 307.5 250C311.5 260.333 313.5 272.833 313.5 287.5C313.5 304.5 310.667 320.5 305 335.5C299.333 350.167 291 363 280 374C269.333 385 256.333 393.5 241 399.5C225.667 405.833 208.5 409 189.5 409C170.833 409 150.667 406.167 129 400.5C107.333 394.833 87 387 68 377C49.3333 367.333 33.6667 356.167 21 343.5C8.66667 330.5 2.5 316.833 2.5 302.5C2.5 295.833 4.33334 287.333 8 277C12 266.667 19 255.833 29 244.5C30 254.5 35.3333 266.333 45 280C55 293.667 69.8333 306.333 89.5 318C107.833 328.667 126.667 336.5 146 341.5C165.667 346.167 184 348.5 201 348.5C219.667 348.5 234.833 346.167 246.5 341.5C258.167 336.833 267.333 331.333 274 325C280.667 318.333 285.333 311.667 288 305C290.667 298.333 292.167 293 292.5 289C292.167 282.333 289 276 283 270C277.333 263.667 269.5 257.667 259.5 252C249.833 246 238.5 240 225.5 234C212.5 228 199 222 185 216C164 206.667 145.833 198 130.5 190C115.5 181.667 103 173.333 93 165C83.3333 156.333 76.1667 147.333 71.5 138C67.1667 128.667 65 118 65 106C65 87.3333 70.6667 69.6667 82 53C93.3333 36.3333 109.667 23.6666 131 15C141.667 10.3333 153 6.99999 165 4.99997C177.333 2.99998 189.333 1.99998 201 1.99998C223 1.99998 244.5 4.99998 265.5 11C286.5 17 307.5 24.6667 328.5 34ZM881.496 172C881.163 178.333 879.996 185 877.996 192C876.329 198.667 874.163 204.833 871.496 210.5C868.829 215.833 865.996 220.333 862.996 224C859.996 227.667 857.163 229.5 854.496 229.5C850.829 229.167 848.663 226.667 847.996 222C847.996 221 848.329 219.5 848.996 217.5C849.996 215.167 850.996 212.667 851.996 210C852.996 207.333 853.829 204.667 854.496 202C855.496 199.333 855.996 197 855.996 195C855.996 190.333 854.829 186.5 852.496 183.5C850.496 180.167 847.663 178.5 843.996 178.5C830.663 178.5 820.496 186.833 813.496 203.5C806.496 220.167 802.996 244.667 802.996 277C802.996 280.333 803.163 282.333 803.496 283C810.496 282.667 816.663 282.5 821.996 282.5C827.663 282.167 833.163 282 838.496 282C838.829 282.667 838.996 284 838.996 286C838.996 289 838.329 291.167 836.996 292.5C829.329 294.167 823.163 295.667 818.496 297C814.163 298 810.829 299 808.496 300C806.163 301 804.663 302.167 803.996 303.5C803.663 304.5 803.496 306 803.496 308C803.496 310.667 803.496 313.333 803.496 316C803.829 318.667 803.996 322 803.996 326C803.996 354 796.329 376.5 780.996 393.5C765.996 410.5 744.996 420.333 717.996 423C713.329 422.667 708.496 421.333 703.496 419C698.496 416.667 693.663 413.667 688.996 410C684.663 406.333 680.829 402.167 677.496 397.5C674.163 393.167 671.829 388.667 670.496 384C670.496 371.333 673.163 359.333 678.496 348C683.829 336.333 690.996 326.167 699.996 317.5C709.329 308.5 720.163 301.333 732.496 296C745.163 290.333 758.829 287 773.496 286C773.496 277.667 772.663 269.5 770.996 261.5C769.329 253.5 767.496 245.833 765.496 238.5C763.829 230.833 762.163 223.5 760.496 216.5C758.829 209.167 757.996 202 757.996 195C757.996 186 759.829 177.167 763.496 168.5C767.163 159.5 771.996 151.333 777.996 144C783.996 136.333 790.996 129.833 798.996 124.5C806.996 119.167 815.329 115.5 823.996 113.5C827.663 114.5 832.496 117.5 838.496 122.5C844.829 127.167 850.996 132.5 856.996 138.5C862.996 144.5 868.329 150.667 872.996 157C877.663 163 880.496 168 881.496 172ZM716.496 400C724.496 396.667 731.996 391.833 738.996 385.5C746.329 379.167 752.663 372 757.996 364C763.329 356 767.496 347.5 770.496 338.5C773.829 329.5 775.496 320.667 775.496 312C768.829 313 761.496 316.167 753.496 321.5C745.496 326.5 737.996 332.667 730.996 340C723.996 347 718.163 354.333 713.496 362C708.829 369.667 706.496 376.333 706.496 382C706.496 389.333 709.829 395.333 716.496 400ZM1054.35 172C1054.01 178.333 1052.85 185 1050.85 192C1049.18 198.667 1047.01 204.833 1044.35 210.5C1041.68 215.833 1038.85 220.333 1035.85 224C1032.85 227.667 1030.01 229.5 1027.35 229.5C1023.68 229.167 1021.51 226.667 1020.85 222C1020.85 221 1021.18 219.5 1021.85 217.5C1022.85 215.167 1023.85 212.667 1024.85 210C1025.85 207.333 1026.68 204.667 1027.35 202C1028.35 199.333 1028.85 197 1028.85 195C1028.85 190.333 1027.68 186.5 1025.35 183.5C1023.35 180.167 1020.51 178.5 1016.85 178.5C1003.51 178.5 993.348 186.833 986.348 203.5C979.348 220.167 975.848 244.667 975.848 277C975.848 280.333 976.014 282.333 976.348 283C983.348 282.667 989.514 282.5 994.848 282.5C1000.51 282.167 1006.01 282 1011.35 282C1011.68 282.667 1011.85 284 1011.85 286C1011.85 289 1011.18 291.167 1009.85 292.5C1002.18 294.167 996.014 295.667 991.348 297C987.014 298 983.681 299 981.348 300C979.014 301 977.514 302.167 976.848 303.5C976.514 304.5 976.348 306 976.348 308C976.348 310.667 976.348 313.333 976.348 316C976.681 318.667 976.848 322 976.848 326C976.848 354 969.181 376.5 953.848 393.5C938.848 410.5 917.848 420.333 890.848 423C886.181 422.667 881.348 421.333 876.348 419C871.348 416.667 866.514 413.667 861.848 410C857.514 406.333 853.681 402.167 850.348 397.5C847.014 393.167 844.681 388.667 843.348 384C843.348 371.333 846.014 359.333 851.348 348C856.681 336.333 863.848 326.167 872.848 317.5C882.181 308.5 893.014 301.333 905.348 296C918.014 290.333 931.681 287 946.348 286C946.348 277.667 945.514 269.5 943.848 261.5C942.181 253.5 940.348 245.833 938.348 238.5C936.681 230.833 935.014 223.5 933.348 216.5C931.681 209.167 930.848 202 930.848 195C930.848 186 932.681 177.167 936.348 168.5C940.014 159.5 944.848 151.333 950.848 144C956.848 136.333 963.848 129.833 971.848 124.5C979.848 119.167 988.181 115.5 996.848 113.5C1000.51 114.5 1005.35 117.5 1011.35 122.5C1017.68 127.167 1023.85 132.5 1029.85 138.5C1035.85 144.5 1041.18 150.667 1045.85 157C1050.51 163 1053.35 168 1054.35 172ZM889.348 400C897.348 396.667 904.848 391.833 911.848 385.5C919.181 379.167 925.514 372 930.848 364C936.181 356 940.348 347.5 943.348 338.5C946.681 329.5 948.348 320.667 948.348 312C941.681 313 934.348 316.167 926.348 321.5C918.348 326.5 910.848 332.667 903.848 340C896.848 347 891.014 354.333 886.348 362C881.681 369.667 879.348 376.333 879.348 382C879.348 389.333 882.681 395.333 889.348 400ZM1242.7 293.5C1235.03 317.833 1227.37 340 1219.7 360C1212.03 380 1203.87 398.333 1195.2 415C1186.53 432 1177.2 447.5 1167.2 461.5C1157.2 475.833 1146.2 489.333 1134.2 502C1118.87 518 1103.03 530.167 1086.7 538.5C1070.37 547.167 1054.03 551.5 1037.7 551.5C1029.37 551.5 1021.03 550.5 1012.7 548.5C1004.7 546.833 997.199 544.333 990.199 541C982.866 538 976.533 534.333 971.199 530C965.533 526 961.533 521.667 959.199 517C959.199 513 961.533 509.5 966.199 506.5C970.199 510.167 973.533 513 976.199 515C978.866 517 981.533 518.667 984.199 520C986.533 521.333 989.199 522.167 992.199 522.5C994.866 522.833 998.033 523 1001.7 523C1020.7 523 1039.2 517.333 1057.2 506C1075.53 495 1092.7 479.167 1108.7 458.5C1125.03 438.167 1139.87 413.333 1153.2 384C1166.53 355 1177.87 322.5 1187.2 286.5C1182.87 293.167 1177.53 301.333 1171.2 311C1164.87 320.667 1157.87 330.333 1150.2 340C1142.53 349.333 1134.53 357.833 1126.2 365.5C1118.2 373.167 1110.37 378.333 1102.7 381C1097.37 380.667 1091.7 379.5 1085.7 377.5C1080.03 375.833 1074.53 373.333 1069.2 370C1064.2 366.667 1059.7 362.667 1055.7 358C1051.7 353.333 1049.03 348 1047.7 342C1047.7 332.333 1048.03 324.667 1048.7 319C1049.37 313 1050.53 306.5 1052.2 299.5C1055.2 286.833 1059.53 272.5 1065.2 256.5C1071.2 240.5 1078.03 224.833 1085.7 209.5C1093.7 193.833 1102.37 179.333 1111.7 166C1121.37 152.333 1131.37 141.667 1141.7 134C1144.37 134 1147.7 134.333 1151.7 135C1155.7 135.333 1159.87 136.167 1164.2 137.5C1168.53 138.833 1172.7 140.5 1176.7 142.5C1180.7 144.167 1184.2 146.5 1187.2 149.5C1183.53 152.833 1175.53 164 1163.2 183C1150.87 202 1137.2 229.333 1122.2 265C1120.53 268.667 1118.53 274 1116.2 281C1113.87 288 1111.53 295.333 1109.2 303C1107.2 310.667 1105.37 318.167 1103.7 325.5C1102.03 332.833 1101.2 338.667 1101.2 343C1101.2 345.667 1101.53 347.667 1102.2 349C1103.2 350.333 1104.03 351.333 1104.7 352C1110.7 351 1118.7 346.167 1128.7 337.5C1138.7 328.5 1150.03 314.667 1162.7 296C1170.7 284 1178.03 272.167 1184.7 260.5C1191.37 248.5 1197.87 236.5 1204.2 224.5C1210.87 212.5 1217.7 200.167 1224.7 187.5C1231.7 174.833 1239.2 161.833 1247.2 148.5C1251.53 148.5 1256.2 149 1261.2 150C1266.2 151 1271.03 152.333 1275.7 154C1280.37 155.333 1284.37 157 1287.7 159C1291.37 160.667 1294.03 162.5 1295.7 164.5C1285.37 186.5 1275.7 208 1266.7 229C1257.7 250 1249.7 271.5 1242.7 293.5Z" fill="#FF339E"/>
</g>
<defs>
<clipPath id="clip0_101_9">
<rect width="1299" height="726" fill="white"/>
</clipPath>
</defs>
</svg>
